<?xml version="1.0" encoding="UTF-8"?>
<!DOCTYPE svg PUBLIC "-//W3C//DTD SVG 1.1//EN" "http://www.w3.org/Graphics/SVG/1.1/DTD/svg11.dtd">
<svg 
   xmlns:xlink="http://www.w3.org/1999/xlink"
   xmlns="http://www.w3.org/2000/svg" width="100%" height="100%" viewBox="0 0 100 100">
    <desc></desc>
    <g alignment-baseline="baseline">
       
       <defs>
          
          <g id="Kanava" transform="scale(0.2)"> 
             <!-- Kanava XProc 3 logo by Bethan Tovey-Walsh (c) copyright 2024 (used by permission) -->
             <!-- change: 
             /svg/g[1]/defs[1]/g[1]/svg[1]/g[1]/g[1]/path[1]/@fill-opacity from 0.506 to 1 -->
             <svg version="1.1" x="0" y="0" width="160" height="120" viewBox="0, 0, 2732, 2048">
                <g id="Layer_8_Copy">
                   <g>
                      <path d="M1608.412,212.295 C1624.546,212.378 1628.417,212.345 1644.297,212.63 C1666.985,213.037 1689.679,213.792 1712.324,215.272 C1720.17,215.785 1728.026,216.361 1735.838,217.274 C1738.195,217.549 1740.436,217.835 1742.74,218.308 C1743.289,218.42 1744.674,218.78 1744.219,219.107 C1468.167,351.853 1365.357,478.235 1389.937,548.848 C1433.269,673.337 1819.805,763.644 1897.782,781.19 C2011.923,806.873 2105.558,360.023 2645.877,301.651 C2673.447,298.673 2230.299,740.999 2230.408,1046.225 C2230.516,1346.604 2706.915,1721.213 2676.051,1723.569 C2219.284,1758.439 2089.095,1319.415 1896.048,1287.811 C1781.124,1268.996 1304.527,1381.546 1343.862,1530.461 C1367.723,1620.79 1658.049,1640.187 1651.498,1642.946 C1148.183,1854.902 43.377,1622.228 54.596,1111.67 C54.869,1099.26 65.57,1094.929 88.127,1106.287 C112.465,1118.543 141.524,1123.283 141.524,1118.093 C141.524,1117.079 125.225,1111.445 101.095,1092.819 C69.137,1068.151 68.311,1048.41 73.197,1035.581 C117.68,918.828 186.441,812.405 270.766,720.516 C414.184,798.498 576.238,916.116 583.149,1094.856 C588.633,1292.884 423.639,1447.246 428.324,1452.586 C437.448,1462.984 610.412,1293.808 615.06,1095.754 C617.965,956.79 541.392,828.78 437.118,741.594 C402.205,712.402 363.194,686.203 320.818,669.079 C544.558,453.698 841.012,332.107 1139.426,261.885 C1293.065,226.546 1450.982,212.855 1608.412,212.295 z" fill="#3B7EFF" fill-opacity="1"/>
                      <path d="M320.818,669.078 C370.561,689.926 415.688,721.301 455.409,757.567 C550.635,844.51 616.867,964.652 615.06,1095.754 C610.411,1293.807 437.448,1462.983 428.324,1452.586 C423.639,1447.246 588.633,1292.883 583.149,1094.856 C576.442,915.816 413.886,798.98 270.766,720.516 C286.673,702.63 303.58,685.672 320.818,669.078 z" fill="#FFFFFF"/>
                      <path d="M319.509,1174.106 C387.738,1174.106 443.049,1113.189 443.049,1038.046 C443.049,962.902 387.738,901.986 319.509,901.986 C251.28,901.986 195.969,962.902 195.969,1038.046 C195.969,1113.189 251.28,1174.106 319.509,1174.106 z" fill="#FFFFFF"/>
                      <path d="M319.509,1098.034 C350.463,1098.034 375.556,1071.176 375.556,1038.046 C375.556,1004.915 350.463,978.058 319.509,978.058 C288.555,978.058 263.462,1004.915 263.462,1038.046 C263.462,1071.176 288.555,1098.034 319.509,1098.034 z" fill="#000000"/>
                      <path d="M301.014,1024.807 C306.859,1024.807 311.597,1019.588 311.597,1013.151 C311.597,1006.714 306.859,1001.495 301.014,1001.495 C295.169,1001.495 290.431,1006.714 290.431,1013.151 C290.431,1019.588 295.169,1024.807 301.014,1024.807 z" fill="#FFFFFF"/>
                      <path d="M714.813,629.945 L714.813,629.945 L714.812,629.945 L714.812,629.946 Q727.85,629.946 754.359,636.182 Q780.868,642.417 794.774,642.417 Q807.811,642.417 832.148,636.182 Q856.484,629.946 868.652,629.946 Q881.689,629.946 890.815,642.417 Q899.941,654.888 899.941,671.894 Q899.941,687.767 892.119,700.238 Q884.297,712.709 873.867,712.709 C868.735,712.478 863.661,711.483 858.63,710.264 C851.98,709.301 854.731,709.502 850.4,709.308 Q835.624,709.308 835.624,722.913 Q835.624,731.983 858.222,781.867 L921.115,920.312 C940.794,870.984 967.286,824.805 991.194,777.486 C1019.543,723.303 1043.335,688.093 1085.074,658.044 C1106.81,643.803 1131.205,636.502 1155.733,636.293 C1159.834,636.599 1171.097,636.277 1171.396,643.911 C1170.482,652.45 1129.432,663.945 1111.242,681.336 C1071.533,719.299 1065.109,744.232 1037.449,801.318 C1012.237,854.77 991.574,910.239 966.099,963.571 C975.326,962.321 984.655,961.945 993.946,961.42 C1014.54,960.336 1035.174,960.086 1055.792,960.035 C1097.495,959.932 1139.199,960.759 1180.895,961.434 L1181.71,961.447 C1183.265,954.825 1185.637,948.431 1188.005,942.067 C1204.543,897.985 1228.8,858.833 1249.67,817.809 C1273.018,774.462 1292.613,746.294 1326.989,722.255 C1344.89,710.863 1364.981,705.021 1385.182,704.855 C1388.56,705.099 1397.835,704.842 1398.081,710.949 C1397.329,717.78 1363.521,726.976 1348.54,740.889 C1315.836,771.259 1310.545,791.206 1287.766,836.874 C1267.566,878.029 1251.436,921.059 1231.205,962.196 C1286.019,963.27 1340.84,963.364 1395.66,963.563 C1440.087,963.708 1422.123,963.495 1449.554,963.905 C1451.283,959.332 1450.502,961.337 1451.873,957.881 C1465.104,924.819 1484.509,895.456 1501.205,864.687 C1519.884,832.177 1535.559,811.051 1563.06,793.022 C1577.381,784.477 1593.454,780.097 1609.614,779.971 C1612.317,780.155 1619.737,779.962 1619.934,784.542 C1619.332,789.665 1592.286,796.563 1580.301,806.997 C1554.138,829.775 1549.905,844.735 1531.682,878.986 C1517.314,907.162 1504.579,936.125 1490.658,964.519 C1564.834,965.39 1638.948,968.919 1713.003,973.055 C1723.046,951.333 1737.072,931.802 1749.704,911.566 C1763.713,889.893 1775.469,875.808 1796.095,863.789 C1806.835,858.093 1818.89,855.172 1831.01,855.089 C1833.037,855.211 1838.603,855.082 1838.75,858.135 C1838.299,861.551 1818.014,866.149 1809.025,873.106 C1789.403,888.291 1786.229,898.264 1772.561,921.098 C1762.29,938.759 1753.421,957.182 1743.459,975.011 C1797.91,978.934 1852.421,982.925 1906.578,989.963 C1916.102,991.201 1925.659,992.466 1935.086,994.327 C1936.624,994.631 1942.23,995.125 1943.34,996.873 C1940.969,999.941 1917.809,1002.362 1914.176,1002.834 C1899.444,1004.744 1884.663,1006.278 1869.877,1007.703 C1828.26,1011.713 1786.548,1014.767 1744.823,1017.396 C1757.933,1040.973 1768.203,1065.999 1782.148,1089.128 C1795.682,1112.912 1796.981,1122.4 1816.565,1138.117 C1825.537,1145.317 1850.918,1148.545 1851.341,1152.118 C1852.04,1158.012 1816.601,1156.33 1801.194,1147.071 C1780.573,1134.68 1772.982,1121.895 1759.095,1099.329 C1749.581,1083.851 1740.028,1068.382 1731.066,1052.566 C1724.776,1041.807 1718.804,1030.872 1714.256,1019.256 C1641.901,1023.461 1569.471,1026.521 1497.01,1028.102 C1513.342,1062.196 1526.587,1097.672 1544.465,1131.031 C1562.51,1166.707 1564.241,1180.939 1590.354,1204.514 C1602.316,1215.314 1636.157,1220.156 1636.722,1225.515 C1637.653,1234.357 1590.402,1231.834 1569.858,1217.945 C1542.364,1199.358 1532.243,1180.181 1513.728,1146.333 C1501.042,1123.115 1488.304,1099.912 1476.354,1076.187 C1468.551,1060.776 1460.604,1045.367 1454.915,1029.021 C1421.628,1029.747 1441.596,1029.361 1395.007,1030.031 C1304.87,1031.195 1355.486,1030.36 1243.164,1032.839 C1264.396,1079.097 1280.562,1127.556 1303.745,1172.933 C1326.301,1220.502 1328.465,1239.478 1361.106,1270.912 C1376.059,1285.312 1418.36,1291.767 1419.066,1298.913 C1420.23,1310.701 1361.167,1307.338 1335.487,1288.82 C1301.119,1264.037 1288.468,1238.467 1265.323,1193.336 C1249.466,1162.379 1233.544,1131.442 1218.607,1099.808 C1208.204,1078.404 1198.283,1056.766 1190.895,1034.123 L1157.935,1035.012 C1124.158,1035.944 1090.379,1036.928 1056.592,1037.377 C1031.632,1037.709 1006.629,1037.859 981.688,1036.655 L978.938,1036.505 C1006.879,1097.312 1027.08,1161.397 1056.852,1221.392 C1084.239,1280.853 1086.867,1304.573 1126.5,1343.865 C1144.656,1361.865 1196.018,1369.934 1196.875,1378.866 C1198.289,1393.602 1126.573,1389.398 1095.393,1366.25 C1053.663,1335.271 1038.302,1303.308 1010.2,1246.895 C990.946,1208.199 971.613,1169.527 953.477,1129.986 C943.283,1108.298 933.531,1086.42 925.201,1063.945 L846.054,1238.765 L833.886,1268.243 Q823.456,1293.186 823.456,1299.988 Q823.456,1316.994 835.624,1316.994 C841.613,1316.651 847.501,1315.194 853.36,1313.734 C860.913,1312.463 857.832,1312.73 862.568,1312.459 Q892.988,1312.459 892.988,1352.14 Q892.988,1370.28 883.427,1383.318 Q873.867,1396.356 860.83,1396.356 Q848.661,1396.356 824.325,1389.553 Q799.989,1382.751 786.952,1382.751 Q766.092,1382.751 726.111,1391.821 Q706.121,1396.356 698.299,1396.356 Q666.14,1396.356 666.14,1351.006 Q666.14,1313.593 692.215,1313.593 C698.408,1313.944 704.503,1315.423 710.576,1316.852 C718.355,1318.121 715.193,1317.854 720.027,1318.128 Q734.803,1318.128 755.663,1278.446 L779.13,1234.23 L891.25,997.278 L808.68,822.682 Q773.915,748.989 760.877,729.148 Q747.84,709.308 733.934,709.308 C728.932,709.484 723.96,710.224 718.995,710.937 C712.678,711.571 715.235,711.438 711.336,711.575 Q683.523,711.575 683.523,671.894 C683.82,649.23 689.688,631.093 714.812,629.945 L714.812,629.945 L714.813,629.945 z" fill="#FFFFFF"/>
                   </g>
                </g>
             </svg>
          </g>
          
          <linearGradient id="barrelful" x1="20%" x2="100%" y1="0%" y2="0%">
             <stop offset="20%" stop-color="#3b7eff" stop-opacity="0.6" />
             <stop offset="100%" stop-color="white"  stop-opacity="0.2"/>
          </linearGradient>
       
       
          <radialGradient id="splash">
             <stop offset="60%" stop-color="white" />
             <stop offset="100%" stop-color="white" stop-opacity="0" />
          </radialGradient>
          
          
       </defs>
       <!--<rect fill="gainsboro" width="100%" height="100%"/>-->
       <!--<rect fill="url(#splash)" width="100%" height="100%"/>-->
       
       <g transform="translate(50 15)">
          <!--<path  stroke-width="1" fill="white" stroke="none"
             d="M 30 0 a 30 10 0 0 1 -60 0
             v -3        a 30 10 0 0 1 60 0 z"/>-->
          
          
          <path id="lid" stroke-width="2" fill="white" fill-opacity="0.2" stroke="#202d43"
             d="M 30 0 a 30 10 0 0 1 -60 0
             v -3        a 30 10 0 0 1 60 0 z"/>
          <path id="rim" stroke-width="1" fill="#202d43" stroke="#202d43"
             d="M 30 0 a 30 10 0 0 1 -60 0
             v -3        a 30 10 0 0 0 60 0 z"/>
          
          
          <ellipse id="soup" cy="7" rx="33" ry="10" fill="#3b7eff" fill-opacity="0.4" />
          
          <path id="bottom" stroke-width="3" stroke="#202d43"
             fill="#3b7eff" fill-opacity="1" stroke-linecap="round"
             d="M 30 72 a 30 10 0 0 1 -60 0
             v -3    a 30 10 0 0 1 60 0 z"/>
          
          <!--<path fill="white" fill-opacity="1"
             d="M -30 0 q -30 35 0 70
             a 30 10 0 1 0 60 0 q 30 -35 0 -70
             a 30 10 0 0 1 -60 0 z"/>-->
          <path fill="url(#barrelful)" fill-opacity="1" stroke-width="2" stroke="#202d43"
             d="M -30 0 q -30 35 0 70
             a 30 10 0 1 0 60 0 q 30 -35 0 -70
             a 30 10 0 0 1 -60 0 z"/>
          
          <g transform="translate(0 20)">
             <!--<use x="1" y="-16" transform="scale(-1 1)" xlink:href="#Kanava"/>-->
             <use x="-17" y="-2.5" transform="scale(2)" xlink:href="#Kanava"/>
             <!--<use x="0" y="16" transform="scale(-1 1)" xlink:href="#Kanava" />-->
          </g>
          
          
       </g>
       
    </g>
</svg>